<mxfile host="app.diagrams.net" modified="2023-09-02T21:31:40.547Z" agent="Mozilla/5.0 (Windows NT 10.0; Win64; x64; rv:109.0) Gecko/20100101 Firefox/117.0" version="21.7.2" etag="bsMtQAb5btskwwGO_woe" type="github">
  <diagram name="Page-1" id="H_Ew0K_-OQeQ6AlePQjB">
    <mxGraphModel>
      <root>
        <mxCell id="0" />
        <mxCell id="1" parent="0" />
      </root>
    </mxGraphModel>
  </diagram>
</mxfile>
